<svg width="360" height="360" viewBox="0 0 360 360" fill="none" xmlns="http://www.w3.org/2000/svg">
<rect width="360" height="360" fill="#E5E50E"/>
<path d="M65.9973 156V91.4051H87.7449C92.6188 91.4051 96.9683 92.1763 100.793 93.7187C104.68 95.1993 107.981 97.3587 110.696 100.197C113.41 102.973 115.477 106.335 116.896 110.284C118.315 114.232 119.024 118.644 119.024 123.517C119.024 128.453 118.315 132.926 116.896 136.936C115.477 140.885 113.41 144.309 110.696 147.208C107.981 150.046 104.68 152.237 100.793 153.779C96.9683 155.26 92.6188 156 87.7449 156H65.9973ZM81.2669 143.507H87.7449C91.0764 143.507 93.8836 142.705 96.1663 141.101C98.5107 139.435 100.269 137.09 101.441 134.067C102.675 131.044 103.292 127.528 103.292 123.517C103.292 119.507 102.675 116.052 101.441 113.153C100.269 110.191 98.5107 107.909 96.1663 106.304C93.8836 104.7 91.0764 103.898 87.7449 103.898H81.2669V143.507ZM125.909 156V91.4051H145.343L163.389 137.121L162.371 113.615V91.4051H176.715V156H157.281L139.05 111.117L140.253 133.79V156H125.909ZM211.825 157.111C206.519 157.111 201.953 156.123 198.128 154.149C194.365 152.113 191.465 149.275 189.429 145.635C187.455 141.933 186.468 137.584 186.468 132.587H201.46C201.46 136.473 202.293 139.466 203.958 141.563C205.686 143.599 208.308 144.617 211.825 144.617C214.601 144.617 216.791 144.031 218.395 142.859C220.061 141.625 220.894 139.898 220.894 137.677C220.894 136.011 220.277 134.715 219.043 133.79C217.871 132.803 216.267 132.001 214.231 131.384C212.256 130.705 210.066 130.088 207.66 129.533C205.316 128.916 202.94 128.175 200.534 127.312C198.19 126.448 196 125.307 193.964 123.888C191.99 122.469 190.386 120.618 189.152 118.335C187.979 116.052 187.393 113.153 187.393 109.636C187.393 105.996 188.38 102.726 190.355 99.8265C192.391 96.9268 195.198 94.6132 198.776 92.8858C202.354 91.1583 206.55 90.2946 211.362 90.2946C215.742 90.2946 219.814 91.1583 223.578 92.8858C227.341 94.5515 230.395 96.9885 232.739 100.197C235.084 103.405 236.318 107.353 236.441 112.042H221.171C221.048 109.945 220.493 108.217 219.506 106.86C218.58 105.502 217.377 104.484 215.896 103.806C214.478 103.127 212.966 102.788 211.362 102.788C209.079 102.788 207.136 103.343 205.532 104.454C203.928 105.502 203.126 107.076 203.126 109.173C203.126 110.777 203.712 112.042 204.884 112.968C206.118 113.893 207.722 114.664 209.696 115.281C211.732 115.836 213.922 116.392 216.267 116.947C218.673 117.502 221.048 118.212 223.392 119.075C225.799 119.877 227.989 121.019 229.963 122.499C231.999 123.98 233.603 125.954 234.775 128.422C236.009 130.828 236.626 133.913 236.626 137.677C236.626 141.44 235.546 144.802 233.387 147.764C231.289 150.663 228.359 152.946 224.596 154.612C220.894 156.278 216.637 157.111 211.825 157.111ZM246.194 165.069L282.101 91.22H297L261.094 165.069H246.194ZM67.7556 264V199.405H115.6V211.898H83.0252V224.392H104.032V236.885H83.0252V251.507H115.97V264H67.7556ZM139.883 264L123.595 199.405H139.327L148.489 235.497L151.451 252.34L154.412 235.497L163.574 199.405H179.121L162.741 264H139.883ZM193.409 251.599V239.106H231.444V251.599H193.409ZM199.979 199.405H222.837L239.217 264H223.67L215.249 227.353L211.362 210.14L207.383 227.353L198.776 264H183.692L199.979 199.405ZM249.248 264V199.405H264.518V251.507H295.797V264H249.248Z" fill="black"/>
</svg>
